<svg xmlns="http://www.w3.org/2000/svg" version="1.1" xmlns:xlink="http://www.w3.org/1999/xlink" xmlns:svgjs="http://svgjs.dev/svgjs" width="500" height="500"><svg id="SvgjsSvg1017" data-name="Layer 1" xmlns="http://www.w3.org/2000/svg" viewBox="0 0 500 500">
  <defs>
    <style>
      .cls-1 {
        fill: #f79901;
        stroke-width: 0px;
      }
    </style>
  </defs>
  <circle class="cls-1" cx="340.15876" cy="374.13607" r="17.94857" transform="translate(-160.33115 302.05536) rotate(-39.52797)"></circle>
  <circle class="cls-1" cx="254.91939" cy="325.73597" r="13.76056"></circle>
  <circle class="cls-1" cx="235.90926" cy="118.21788" r="13.76057" transform="translate(-25.27021 155.82014) rotate(-34.80881)"></circle>
  <circle class="cls-1" cx="148.73698" cy="325.87541" r="17.94856" transform="translate(-77.12407 47.83898) rotate(-14.55541)"></circle>
  <path class="cls-1" d="M384.71701,253.24745c-7.66042-1.89803-15.39055-1.70257-22.57103.22137-14.69945,4.6122-26.73363,16.55975-30.67248,32.4396-1.52628,6.15415-1.72293,12.31658-.77582,18.19029,1.66479,10.32598-2.73952,20.69324-11.17875,26.86664-4.66415,3.41187-9.48399,6.90253-14.08197,10.21566-6.60342,4.75819-12.74874,9.14984-17.31381,12.41284-2.41175,1.72385-5.20306,3.73234-5.2031,3.73237-.20791.14961-1.25952.90709-2.34242,1.68718-3.23827,2.33275-4.8536,3.50524-4.90725,3.53451-.66216.36127-3.09844,1.64705-6.53574,2.4357-2.85838.65582-6.40822.96825-10.21275.11589-2.06647-.82996-4.13295-1.65994-6.19942-2.4899-2.08555-.64449-5.21479-1.1695-9.90708-.81479-.09546.00722-.11316.00845-.16235.01225-3.84941.29791-11.22681-3.96848-15.35494-9.95021-.02438-.03532-.61647-.95464-1.80068-2.79328-.9249-1.43604-2.32581-3.61838-4.4329-6.89188-.69943-1.08661-1.53076-2.37649-1.96452-3.04962-3.49157-5.41845-8.23039-12.86536-8.86903-13.86801-11.62931-18.25813-15.23123-24.13751-22.43504-35.89627-.68336-1.11544-1.7332-2.89088-2.64864-5.4386-1.95742-5.44752-2.16753-11.34848-.65968-16.88008.71458-3.95745,2.27999-7.79121,4.69463-11.21354,4.70541-6.66866,8.10546-14.40545,9.76617-22.90136.09792-.50096.19076-1.00413.27649-1.5103,1.32898-7.84632,1.05808-15.59288-.56924-22.90994-.31221-1.40385-.67465-2.79173-1.0853-4.16149-.45243-9.52968,4.03502-18.77792,12.05283-24.33879l46.91557-32.5393.00765.01165c2.32484-1.53374,4.64967-3.06748,6.97453-4.6012,7.56028-4.98769,7.28423-4.89644,7.89846-5.21071,1.70474-.87231,9.03282-4.39111,17.25927-2.60755,3.31849.71944,4.3819,2.01377,6.50622,2.55374,14.4395,3.67049,29.36412-4.88929,33.48225-19.20765,4.3513-15.12953-4.71944-30.82665-20.0022-34.60994-14.42627-3.57092-29.25997,5.02952-33.33088,19.32229-1.1469,4.02668-1.06856,7.9451-1.06856,7.94514.10106,1.69424.18401,2.16406.21471,3.12553.21478,6.72625-6.8795,12.56833-8.60672,13.99073-.05294.04364-.00285.00186-8.67879,5.72551-1.74522,1.15135-3.49034,2.30266-5.23553,3.45397-.48521.3201-.9704.64022-1.45561.96035-15.70419,10.90434-31.40835,21.80873-47.11255,32.71305-8.06934,5.59651-18.36135,6.50253-27.17366,2.67511-7.58755-5.70875-16.65519-9.6911-26.71866-11.25203-31.77445-4.92834-62.02786,16.5605-67.83836,48.18552-.23044,1.25413-.41499,2.50567-.56454,3.75404-3.76302,31.41264,17.77251,60.56817,49.30403,65.90898,6.90916,1.1704,13.742,1.10287,20.27147-.04102,11.17368-1.95774,22.41623,3.07789,28.48523,12.6621,7.54192,11.9102,15.08383,23.82041,22.62575,35.73061,4.40683,6.95926,8.81365,13.91852,13.22048,20.87778.80898,1.3946,1.59372,2.90191,2.326,4.52525,1.86076,4.12499,3.93358,8.60691,4.08719,14.58165.17758,6.90724-3.62122,12.88564-3.8616,19.66675-.10282,2.90068.27455,5.13139.44157,6.00869.19105,1.0035.73094,4.79328,3.40843,8.80952.00001.00001,4.55536,7.72242,12.45561,11.43794,1.71891.80841,3.47082,1.33636,3.47085,1.33637,1.60792.48147,3.26419.79733,4.94158.95804,6.26573.68064,12.4388-.83521,17.59322-4.02248,5.83386-3.46414,10.52934-8.99769,12.47627-16.22703,1.2248-4.54794-.30746-10.12608,1.34085-14.802,1.5025-4.26236,5.27019-7.68341,8.62955-10.51543,1.09815-.92579,2.11898-1.66818,2.91339-2.21048.85329-.58248,1.50589-.98281,1.60443-1.04355.39449-.24323,1.50573-1.01193,3.54187-2.45947,5.05593-3.59442,15.82447-11.38187,35.55511-25.75715,5.38676-3.91385,11.86389-5.69509,18.27859-5.28462,2.64738.56787,5.23768,1.51651,7.68507,2.85568,3.29354,1.80215,6.86728,3.2246,10.67878,4.19436,9.1008,2.31561,18.31856,1.66829,26.606-1.335,13.29504-4.81802,24.19402-15.70388,28.36144-30.18115,7.14826-24.83305-7.73509-50.60279-32.81992-56.81881Z"></path>
</svg><style>@media (prefers-color-scheme: light) { :root { filter: none; } }
@media (prefers-color-scheme: dark) { :root { filter: none; } }
</style></svg>