<svg xmlns="http://www.w3.org/2000/svg" width="25.542" height="25.543" viewBox="0 0 25.542 25.543">
  <path id="purchase" d="M51.936,42.042c.354-.131.7-.311,1.043-.471l-.405,2.622c-.168,1.089-1.249,1.475-2.047,1.67L37.813,48.978c-.037.009-.074.016-.111.023a1.274,1.274,0,0,0,.3,2.512H49.536a2.014,2.014,0,1,1-1.68.9H40.949a2.014,2.014,0,1,1-3.335-.035,2.175,2.175,0,0,1-1.163-3.666,2.154,2.154,0,0,1-.9-1.408l-2.066-13.36H30.452a.452.452,0,0,1,0-.9h3.42a.452.452,0,0,1,.447.383l.5,3.228a2.249,2.249,0,0,1,1.5-.538h6.771c.029.288.048.6.1.885A6.574,6.574,0,0,0,51.936,42.042Zm3.607-6.156A5.887,5.887,0,1,1,49.656,30,5.893,5.893,0,0,1,55.542,35.886Zm-3.013-2a.339.339,0,0,0-.48,0l-3.273,3.273-1.516-1.517a.339.339,0,0,0-.479.48l1.756,1.756a.339.339,0,0,0,.479,0l3.512-3.513A.339.339,0,0,0,52.53,33.89Z" transform="translate(-30 -29.999)" fill="#fff"/>
</svg>
