<?xml version="1.0" encoding="UTF-8"?>
<svg id="Layer_1" data-name="Layer 1" xmlns="http://www.w3.org/2000/svg" viewBox="0 0 1080 1080">
  <defs>
    <style>
      .cls-1 {
        fill: #fd7e14;
        stroke-width: 0px;
      }
    </style>
  </defs>
  <circle class="cls-1" cx="711.54608" cy="776.19509" r="34.15095" transform="translate(-331.29247 630.37192) rotate(-39.52797)"/>
  <circle class="cls-1" cx="549.36017" cy="684.10369" r="26.18238" transform="translate(-312.34265 849.21791) rotate(-62.08145)"/>
  <circle class="cls-1" cx="513.18939" cy="289.25668" r="26.18239" transform="translate(-73.28986 344.70813) rotate(-34.80881)"/>
  <circle class="cls-1" cx="347.32571" cy="684.36899" r="34.15092" transform="translate(-160.84557 109.25334) rotate(-14.55541)"/>
  <path class="cls-1" d="M796.32758,546.17895c-14.57557-3.6114-29.28377-3.2395-42.94616.42121-27.96882,8.77568-50.86639,31.50842-58.36088,61.7232-2.90407,11.70958-3.27825,23.4349-1.47615,34.61086,3.16762,19.64736-5.21252,39.37326-21.26993,51.11945-8.87453,6.4918-18.0453,13.13353-26.79392,19.43745-12.5644,9.05347-24.25718,17.4095-32.94318,23.61804-4.58886,3.27999-9.89991,7.10157-9.9,7.10162-.39559.28466-2.39651,1.72593-4.45695,3.21021-6.16149,4.43854-9.235,6.66946-9.33708,6.72515-1.25991.6874-5.89544,3.13387-12.43563,4.63443-5.43866,1.24784-12.193,1.84229-19.43192.2205-3.9319-1.57918-7.86381-3.15838-11.79571-4.73756-3.9682-1.22628-9.92224-2.22522-18.85032-1.5503-.18162.01373-.21531.01607-.3089.02331-7.32431.56684-21.36137-7.55086-29.21603-18.93237-.04638-.06721-1.17297-1.8164-3.42617-5.3148-1.75981-2.73237-4.42535-6.88474-8.43453-13.11326-1.33081-2.0675-2.9126-4.52178-3.73791-5.80254-6.64346-10.30974-15.66006-24.47907-16.8752-26.38682-22.12722-34.73995-28.98063-45.92671-42.68741-68.30023-1.30024-2.12237-3.29778-5.50052-5.0396-10.34808-3.7244-10.36506-4.12418-21.59287-1.25518-32.11792,1.35963-7.52988,4.33817-14.82443,8.93253-21.33613,8.95305-12.68854,15.42236-27.40941,18.5822-43.57468.18631-.95318.36296-1.91058.52608-2.87366,2.52866-14.92928,2.01321-29.66874-1.0831-43.59101-.59405-2.67111-1.28367-5.31186-2.06501-7.91812-.86085-18.13224,7.67748-35.72896,22.93306-46.30969l89.26678-61.91289.01456.02217c4.42349-2.91827,8.84698-5.83654,13.27052-8.75476,14.38504-9.49013,13.85978-9.31652,15.02849-9.91447,3.24362-1.65975,17.18685-8.35501,32.8394-4.96142,6.31413,1.36888,8.33749,3.83163,12.37946,4.85903,27.4742,6.98388,55.87143-9.3029,63.70705-36.54661,8.27926-28.78714-8.97974-58.65421-38.05842-65.85273-27.44903-6.79442-55.67328,9.56972-63.41905,36.76474-2.18223,7.66161-2.03317,15.11722-2.03317,15.11731.19228,3.22365.35013,4.11757.40853,5.94699.40867,12.79811-13.0897,23.91391-16.3761,26.62031-.10073.08304-.00542.00354-16.51322,10.89399-3.32064,2.19069-6.6411,4.3813-9.9617,6.5719-.92322.60906-1.84639,1.21816-2.76961,1.82727-29.88053,20.74781-59.76102,41.49571-89.64158,62.24348-15.35363,10.64854-34.93635,12.37243-51.70363,5.08997-14.43692-10.8621-31.69002-18.43936-50.8379-21.40937-60.4576-9.37721-118.0211,31.50985-129.07681,91.68312-.43845,2.38625-.78961,4.76757-1.07416,7.14285-7.15993,59.76918,33.81595,115.24375,93.81134,125.40575,13.14614,2.22693,26.14706,2.09845,38.57075-.07805,21.26028-3.72501,42.65162,5.85633,54.19916,24.09233,14.3501,22.66168,28.70018,45.32336,43.05027,67.98504,8.38493,13.24147,16.76983,26.48292,25.15475,39.72439,1.53926,2.65351,3.03239,5.5215,4.42571,8.61024,3.54049,7.84867,7.48446,16.37646,7.77674,27.74466.33788,13.14248-6.89014,24.51766-7.34751,37.42015-.19564,5.51915.52239,9.76355.84018,11.43279.36352,1.90937,1.39076,9.12023,6.48526,16.76197.00002.00002,8.66753,14.69353,23.69943,21.7631,3.27059,1.53817,6.60397,2.5427,6.60402,2.54272,3.0594.9161,6.2108,1.51709,9.4024,1.82288,11.92188,1.29507,23.66745-1.58916,33.47482-7.65361,11.10016-6.59125,20.0343-17.12,23.73873-30.87535,2.33044-8.65342-.58501-19.267,2.55126-28.16392,2.85883-8.11005,10.02765-14.61931,16.41955-20.00783,2.08947-1.76151,4.0318-3.17407,5.54334-4.2059,1.62356-1.10829,2.86528-1.87,3.05277-1.98558.7506-.4628,2.86497-1.9254,6.73915-4.67967,9.61997-6.83914,30.10939-21.65641,67.65111-49.00842,10.24946-7.44693,22.57356-10.83612,34.77887-10.05511,5.03721,1.0805,9.9658,2.88548,14.62247,5.43353,6.26666,3.42897,13.06645,6.13549,20.31863,7.98065,17.3162,4.40593,34.85492,3.17427,50.62353-2.54013,25.29663-9.1673,46.03423-29.87995,53.96364-57.42602,13.60107-47.25013-14.71765-96.28251-62.44683-108.10979Z"/>
</svg>