<?xml version="1.0" encoding="UTF-8"?>
<svg id="Layer_1" data-name="Layer 1" xmlns="http://www.w3.org/2000/svg" viewBox="0 0 1920 1080">
  <defs>
    <style>
      .cls-1 {
        fill: #fd7e14;
      }

      .cls-1, .cls-2 {
        stroke-width: 0px;
      }

      .cls-2 {
        fill: #007b8f;
      }
    </style>
  </defs>
  <g>
    <circle class="cls-2" cx="771.58052" cy="796.19635" r="34.15095" transform="translate(-330.29333 673.15514) rotate(-39.52797)"/>
    <circle class="cls-2" cx="609.39461" cy="704.10495" r="26.18238" transform="translate(-298.09067 912.90159) rotate(-62.08146)"/>
    <circle class="cls-2" cx="573.22382" cy="309.25794" r="26.18239" transform="translate(-73.9649 382.55716) rotate(-34.80881)"/>
    <circle class="cls-2" cx="407.36015" cy="704.37025" r="34.15092" transform="translate(-163.94541 124.9829) rotate(-14.55541)"/>
    <path class="cls-2" d="M856.36202,566.18021c-14.57557-3.6114-29.28377-3.2395-42.94616.42121-27.96882,8.77568-50.86639,31.50842-58.36088,61.7232-2.90407,11.70958-3.27825,23.4349-1.47615,34.61086,3.16762,19.64736-5.21252,39.37326-21.26993,51.11945-8.87453,6.4918-18.0453,13.13353-26.79392,19.43745-12.5644,9.05347-24.25718,17.4095-32.94318,23.61804-4.58886,3.27999-9.89991,7.10157-9.9,7.10162-.39559.28466-2.39651,1.72593-4.45695,3.21021-6.16149,4.43854-9.235,6.66946-9.33708,6.72515-1.25991.6874-5.89544,3.13387-12.43563,4.63443-5.43866,1.24784-12.193,1.84229-19.43192.2205-3.9319-1.57918-7.86381-3.15838-11.79571-4.73756-3.9682-1.22628-9.92224-2.22522-18.85032-1.5503-.18162.01373-.21531.01607-.3089.02331-7.32431.56684-21.36137-7.55086-29.21603-18.93237-.04638-.06721-1.17297-1.8164-3.42617-5.3148-1.75981-2.73237-4.42535-6.88474-8.43453-13.11326-1.33081-2.0675-2.9126-4.52178-3.73791-5.80254-6.64346-10.30974-15.66006-24.47907-16.8752-26.38682-22.12722-34.73995-28.98063-45.92671-42.68741-68.30023-1.30024-2.12237-3.29778-5.50052-5.0396-10.34808-3.7244-10.36506-4.12418-21.59287-1.25518-32.11792,1.35963-7.52988,4.33817-14.82443,8.93253-21.33613,8.95305-12.68854,15.42236-27.40941,18.5822-43.57468.18631-.95318.36296-1.91058.52608-2.87366,2.52866-14.92928,2.01321-29.66874-1.0831-43.59101-.59405-2.67111-1.28367-5.31186-2.06501-7.91812-.86085-18.13224,7.67748-35.72896,22.93306-46.30969l89.26678-61.91289.01456.02217c4.42349-2.91827,8.84698-5.83654,13.27052-8.75476,14.38504-9.49013,13.85978-9.31652,15.02849-9.91447,3.24362-1.65975,17.18685-8.35501,32.8394-4.96142,6.31413,1.36888,8.33749,3.83163,12.37946,4.85903,27.4742,6.98388,55.87143-9.3029,63.70705-36.54661,8.27926-28.78714-8.97974-58.65421-38.05842-65.85273-27.44903-6.79442-55.67328,9.56972-63.41905,36.76474-2.18223,7.66161-2.03317,15.11722-2.03317,15.11731.19228,3.22365.35013,4.11757.40853,5.94699.40867,12.79811-13.0897,23.91391-16.3761,26.62031-.10073.08304-.00542.00354-16.51322,10.89399-3.32064,2.19069-6.6411,4.3813-9.9617,6.5719-.92322.60906-1.84639,1.21816-2.76961,1.82727-29.88053,20.74781-59.76102,41.49571-89.64158,62.24348-15.35363,10.64854-34.93635,12.37243-51.70363,5.08997-14.43692-10.8621-31.69002-18.43936-50.8379-21.40937-60.4576-9.37721-118.0211,31.50985-129.07681,91.68312-.43845,2.38625-.78961,4.76757-1.07416,7.14285-7.15993,59.76918,33.81595,115.24375,93.81134,125.40575,13.14614,2.22693,26.14706,2.09845,38.57075-.07805,21.26028-3.72501,42.65162,5.85633,54.19916,24.09233,14.3501,22.66168,28.70018,45.32336,43.05027,67.98504,8.38493,13.24147,16.76983,26.48292,25.15475,39.72439,1.53926,2.65351,3.03239,5.5215,4.42571,8.61024,3.54049,7.84867,7.48446,16.37646,7.77674,27.74466.33788,13.14248-6.89014,24.51766-7.34751,37.42015-.19564,5.51915.52239,9.76355.84018,11.43279.36352,1.90937,1.39076,9.12023,6.48526,16.76197.00002.00002,8.66753,14.69353,23.69943,21.7631,3.27059,1.53817,6.60397,2.5427,6.60402,2.54272,3.0594.9161,6.2108,1.51709,9.4024,1.82288,11.92188,1.29507,23.66745-1.58916,33.47482-7.65361,11.10016-6.59125,20.0343-17.12,23.73873-30.87535,2.33044-8.65342-.58501-19.267,2.55126-28.16392,2.85883-8.11005,10.02765-14.61931,16.41955-20.00783,2.08947-1.76151,4.0318-3.17407,5.54334-4.2059,1.62356-1.10829,2.86528-1.87,3.05277-1.98558.7506-.4628,2.86497-1.9254,6.73915-4.67967,9.61997-6.83914,30.10939-21.65641,67.65111-49.00842,10.24946-7.44693,22.57356-10.83612,34.77887-10.05511,5.03721,1.0805,9.9658,2.88548,14.62247,5.43353,6.26666,3.42897,13.06645,6.13549,20.31863,7.98065,17.3162,4.40593,34.85492,3.17427,50.62353-2.54013,25.29663-9.1673,46.03423-29.87995,53.96364-57.42602,13.60107-47.25013-14.71765-96.28251-62.44683-108.10979Z"/>
  </g>
  <g>
    <g>
      <path class="cls-1" d="M872.65064,330.95345v-51.75764h-54.38094v51.75764h-22.8889v-123.92504h22.8889v51.75764h54.38094v-51.75764h22.89068v123.92504h-22.89068Z"/>
      <path class="cls-1" d="M931.98808,330.95345h-25.22211l72.89708-128.7356,72.89708,128.7356h-25.22211l-14.72535-26.3896h-66.04518l-14.57942,26.3896ZM956.9201,286.33958h45.34177l-22.74474-40.8213-22.59703,40.8213Z"/>
      <path class="cls-1" d="M1101.83864,224.81487c-7.96956,0-13.87465,1.5092-17.71349,4.52047-3.84062,3.01306-5.75915,6.94978-5.75915,11.8084,0,3.40459,1.21376,6.124,3.64485,8.16533,2.42931,2.04133,5.54025,3.5968,9.33104,4.66463,3.79079,1.07139,8.94128,2.2371,15.45504,3.49892,9.52325,1.74946,17.3967,3.71782,23.61858,5.90509,6.21832,2.18727,11.53966,5.80899,15.96403,10.86159,4.42081,5.05439,6.63299,12.00595,6.63299,20.84935,0,12.53808-4.59166,22.08803-13.77677,28.64805s-21.60217,9.84182-37.25119,9.84182c-11.27627,0-21.26224-1.74946-29.9597-5.25016-8.70102-3.49892-15.57784-7.62785-20.63044-12.39215l10.05894-18.37021c5.25016,4.47242,11.39551,8.14219,18.44318,11.00753,7.04589,2.8689,14.50645,4.30157,22.3799,4.30157,9.13527,0,15.89107-1.57861,20.2656-4.7376,4.37454-3.15899,6.56003-7.31284,6.56003-12.4669,0-3.49892-1.23868-6.29129-3.71782-8.38245-2.47736-2.08938-5.56517-3.66799-9.25807-4.7376-3.69469-1.06961-8.84518-2.28337-15.45326-3.64485-9.52681-1.84556-17.32729-3.83884-23.39968-5.97806-6.07594-2.13744-11.2994-5.68619-15.67394-10.64269-4.37276-4.95828-6.56003-11.81018-6.56003-20.55748,0-7.58158,1.94345-14.18966,5.83212-19.82779,3.88512-5.63635,9.37909-9.96284,16.47481-12.97589,7.09394-3.01128,15.35537-4.52047,24.7843-4.52047,10.00911,0,18.97709,1.8954,26.8986,5.68619,7.92151,3.79079,14.40856,8.11728,19.46473,12.97589l-9.76885,17.6423c-12.24621-10.59286-24.54403-15.89285-36.88635-15.89285Z"/>
      <path class="cls-1" d="M1227.80679,225.98236c-7.58158,0-14.57942,1.94523-20.99528,5.83034-6.41409,3.88867-11.51653,9.13705-15.30732,15.74691-3.79079,6.60986-5.68619,13.75363-5.68619,21.43131,0,7.67947,1.8954,14.82324,5.68619,21.43131,3.79079,6.61164,8.89323,11.86001,15.30732,15.74691,6.41587,3.88867,13.4137,5.83034,20.99528,5.83034,6.70596,0,13.12183-1.23868,19.24405-3.71782,6.124-2.47736,11.76035-5.80543,16.91262-9.98597v25.07617c-9.81868,6.80563-21.86912,10.20666-36.15667,10.20666-11.86001,0-22.79458-2.89204-32.80369-8.67611-10.01267-5.78051-17.95731-13.63083-23.83749-23.54561-5.88195-9.91301-8.82026-20.70163-8.82026-32.36588s2.93831-22.45287,8.82026-32.36588c5.88017-9.91479,13.82482-17.76154,23.83749-23.54561,10.00911-5.78229,20.94367-8.67611,32.80369-8.67611,13.89779,0,26.144,3.64485,36.74041,10.93456l-.58375,24.4942c-11.27627-9.23316-23.32671-13.84973-36.15667-13.84973Z"/>
      <path class="cls-1" d="M1359.45757,330.95345v-51.75764h-54.38094v51.75764h-22.8889v-123.92504h22.8889v51.75764h54.38094v-51.75764h22.89068v123.92504h-22.89068Z"/>
      <path class="cls-1" d="M1480.3215,259.07614v19.82957h-52.04951v31.78213h54.67281v20.2656h-77.56171v-123.92504h77.56171v20.55748h-54.67281v31.49026h52.04951Z"/>
      <path class="cls-1" d="M1642.15266,202.21784v128.7356h-22.30515v-62.83814l-47.3831,67.6487-47.23895-67.6487v62.83814h-22.45109v-128.7356l69.69004,97.24357,69.68826-97.24357Z"/>
    </g>
    <g>
      <path class="cls-1" d="M880.81597,466.22021c3.49892,5.05617,5.24838,11.13033,5.24838,18.22427,0,6.80563-1.72632,13.02573-5.17541,18.66208-3.45087,5.63813-8.21516,10.11055-14.28754,13.4137-6.07594,3.30493-12.90293,4.9565-20.48451,4.9565h-50.73608v-123.92504h48.84069c7.38581,0,13.89779,1.43445,19.53592,4.30157,5.63635,2.86712,9.98775,6.77893,13.04886,11.73543,3.06111,4.9565,4.59344,10.49675,4.59344,16.62075,0,5.63813-1.36326,10.66761-4.08266,15.09019-2.72296,4.42437-6.31976,7.75243-10.78863,9.98597,6.02433,2.2371,10.78863,5.88195,14.28754,10.93456ZM853.77144,443.98803c3.35298-2.965,5.02947-6.63477,5.02947-11.00753,0-4.37454-1.67649-8.04253-5.02947-11.00753-3.35298-2.965-7.80049-4.44751-13.34074-4.44751h-22.161v30.90829h22.161c5.54025,0,9.98775-1.48072,13.34074-4.44573ZM857.05145,496.83841c3.69291-3.30315,5.54025-7.38581,5.54025-12.24799,0-4.9565-1.84734-9.08722-5.54025-12.39215-3.69469-3.30315-8.5533-4.9565-14.57942-4.9565h-24.20233v34.55315h24.20233c6.02611,0,10.88473-1.65157,14.57942-4.9565Z"/>
      <path class="cls-1" d="M979.66306,521.47677v-51.75764h-54.38094v51.75764h-22.8889v-123.92504h22.8889v51.75764h54.38094v-51.75764h22.89068v123.92504h-22.89068Z"/>
      <path class="cls-1" d="M1039.00228,521.47677h-25.22211l72.89708-128.7356,72.89708,128.7356h-25.22211l-14.72535-26.3896h-66.04518l-14.57942,26.3896ZM1063.93429,476.8629h45.34177l-22.74474-40.8213-22.59703,40.8213Z"/>
      <path class="cls-1" d="M1193.3978,521.47677h-22.8889v-123.92504h49.2785c8.16355,0,15.42834,1.67649,21.79616,5.02947,6.36426,3.35298,11.32076,7.92329,14.87129,13.70558,3.54697,5.78407,5.32134,12.17324,5.32134,19.17108,0,6.31976-1.41131,12.054-4.2286,17.20449-2.82085,5.15227-6.82876,9.42892-12.02731,12.82996-5.2021,3.40281-11.25135,5.63813-18.1513,6.70596l36.73863,49.2785h-27.40937l-34.84324-48.11279-8.4572.14594v47.96685ZM1232.47142,448.87156c3.983-3.40103,5.97628-7.72752,5.97628-12.97589,0-5.34448-1.99328-9.71902-5.97628-13.12183-3.98656-3.40103-9.03917-5.10244-15.16316-5.10244h-23.91046v36.3026h23.91046c6.124,0,11.1766-1.69963,15.16316-5.10244Z"/>
      <path class="cls-1" d="M1286.85236,521.47677h-25.22211l72.89708-128.7356,72.89708,128.7356h-25.22211l-14.72535-26.3896h-66.04518l-14.57942,26.3896ZM1311.78437,476.8629h45.34177l-22.74474-40.8213-22.59703,40.8213Z"/>
      <path class="cls-1" d="M1452.62025,521.47677h-22.89068v-103.36756h-40.38349v-20.55748h103.5135v20.55748h-40.23933v103.36756Z"/>
    </g>
  </g>
</svg>